<svg width="200" height="200" viewBox="0 0 200 200" fill="none" xmlns="http://www.w3.org/2000/svg">
  <defs>
    <linearGradient id="skyGradient" x1="100" y1="15" x2="100" y2="185">
      <stop offset="0%" stop-color="#bae6fd"/>
      <stop offset="100%" stop-color="#7dd3fc"/>
    </linearGradient>
  </defs>
  <circle cx="100" cy="100" r="85" fill="#7dd3fc"/>
  <circle cx="100" cy="100" r="85" fill="url(#skyGradient)" opacity="0.5"/>
  <ellipse cx="100" cy="160" rx="80" ry="30" fill="#65a30d"/>
  <ellipse cx="100" cy="158" rx="75" ry="25" fill="#84cc16" opacity="0.8"/>
  <rect x="55" y="70" width="18" height="80" fill="#78350f" rx="3"/>
  <rect x="127" y="70" width="18" height="80" fill="#78350f" rx="3"/>
  <path d="M64 70 L64 75 L95 110 L100 110 L100 105 L73 75 L73 70 Z" fill="#92400e"/>
  <path d="M136 70 L136 75 L105 110 L100 110 L100 105 L127 75 L127 70 Z" fill="#92400e"/>
  <rect x="91" y="105" width="18" height="45" fill="#78350f" rx="3"/>
  <path d="M100 50 L150 75 L145 80 L100 58 L55 80 L50 75 Z" fill="#b45309"/>
  <rect x="93" y="130" width="14" height="20" fill="#92400e" rx="2"/>
  <circle cx="103" cy="140" r="1.5" fill="#d97706"/>
  <circle cx="160" cy="40" r="14" fill="#fbbf24" opacity="0.6"/>
  <circle cx="160" cy="40" r="10" fill="#fde047"/>
</svg>
